<?xml version="1.0" encoding="UTF-8" standalone="no"?>
<!DOCTYPE svg PUBLIC "-//W3C//DTD SVG 20010904//EN"
              "http://www.w3.org/TR/2001/REC-SVG-20010904/DTD/svg10.dtd">

<svg xmlns="http://www.w3.org/2000/svg"
     width="11.1111in" height="8.33333in"
     viewBox="0 0 800 600">
  <path id="Path"
        fill="none" stroke="black" stroke-width="1"
        d="M 81.11,89.00
           C 81.11,89.00 87.31,89.00 87.31,89.00
             88.35,89.00 89.15,89.25 89.70,89.73
             90.25,90.23 90.53,90.83 90.53,91.55
             90.53,92.16 90.33,92.68 89.94,93.11
             89.68,93.40 89.29,93.63 88.78,93.80
             89.55,94.00 90.12,94.34 90.48,94.84
             90.85,95.34 91.03,95.95 91.03,96.69
             91.03,97.29 90.90,97.84 90.64,98.31
             90.38,98.79 90.02,99.17 89.58,99.45
             89.30,99.63 88.88,99.76 88.33,99.84
             87.58,99.95 87.08,100.00 86.83,100.00
             86.83,100.00 81.11,100.00 81.11,100.00
             81.11,100.00 81.11,89.00 81.11,89.00 Z
           M 84.45,93.00
           C 84.45,93.00 85.89,93.00 85.89,93.00
             86.41,93.00 86.77,92.91 86.97,92.73
             87.18,92.56 87.28,92.31 87.28,91.98
             87.28,91.67 87.18,91.43 86.97,91.27
             86.77,91.09 86.42,91.00 85.92,91.00
             85.92,91.00 84.45,91.00 84.45,91.00
             84.45,91.00 84.45,93.00 84.45,93.00 Z
           M 84.45,98.00
           C 84.45,98.00 86.14,98.00 86.14,98.00
             86.71,98.00 87.11,97.86 87.34,97.58
             87.58,97.30 87.70,96.92 87.70,96.45
             87.70,96.02 87.58,95.67 87.34,95.41
             87.11,95.14 86.71,95.00 86.14,95.00
             86.14,95.00 84.45,95.00 84.45,95.00
             84.45,95.00 84.45,98.00 84.45,98.00 Z
           M 100.53,97.00
           C 100.53,97.00 94.56,97.00 94.56,97.00
             94.61,97.30 94.74,97.53 94.95,97.67
             95.24,97.89 95.62,98.00 96.08,98.00
             96.37,98.00 96.65,98.00 96.92,98.00
             97.08,98.00 97.25,98.00 97.44,98.00
             97.44,98.00 100.38,98.00 100.38,98.00
             99.93,98.71 99.38,99.22 98.75,99.53
             98.11,99.84 97.20,100.00 96.02,100.00
             94.98,100.00 94.17,99.86 93.58,99.58
             92.99,99.29 92.50,98.84 92.11,98.22
             91.72,97.59 91.53,96.86 91.53,96.02
             91.53,94.82 91.91,93.85 92.69,93.11
             93.47,92.37 94.55,92.00 95.92,92.00
             97.04,92.00 97.91,92.18 98.55,92.53
             99.19,92.88 99.68,93.38 100.02,94.05
             100.36,94.71 100.53,95.59 100.53,96.66
             100.53,96.66 100.53,97.00 100.53,97.00 Z
           M 97.50,95.00
           C 97.44,94.65 97.28,94.39 97.03,94.23
             96.78,94.08 96.45,94.00 96.05,94.00
             95.57,94.00 95.19,94.12 94.91,94.34
             94.73,94.49 94.61,94.71 94.56,95.00
             94.56,95.00 97.50,95.00 97.50,95.00 Z
           M 104.50,89.00
           C 104.50,89.00 104.50,92.00 104.50,92.00
             104.50,92.00 106.14,92.00 106.14,92.00
             106.14,92.00 106.14,94.00 106.14,94.00
             106.14,94.00 104.50,94.00 104.50,94.00
             104.50,94.00 104.50,97.02 104.50,97.02
             104.50,97.37 104.53,97.61 104.59,97.73
             104.69,97.91 104.86,98.00 105.11,98.00
             105.33,98.00 105.63,97.93 106.03,97.80
             106.03,97.80 106.25,99.77 106.25,99.77
             105.51,99.92 104.82,100.00 104.19,100.00
             103.45,100.00 102.90,99.90 102.55,99.70
             102.19,99.51 101.93,99.21 101.77,98.81
             101.60,98.41 101.52,97.75 101.52,96.84
             101.52,96.84 101.52,94.00 101.52,94.00
             101.52,94.00 100.41,94.00 100.41,94.00
             100.41,94.00 100.41,92.00 100.41,92.00
             100.41,92.00 101.52,92.00 101.52,92.00
             101.52,92.00 101.52,90.55 101.52,90.55
             101.52,90.55 104.50,89.00 104.50,89.00 Z
           M 110.50,89.00
           C 110.50,89.00 110.50,92.00 110.50,92.00
             110.50,92.00 112.14,92.00 112.14,92.00
             112.14,92.00 112.14,94.00 112.14,94.00
             112.14,94.00 110.50,94.00 110.50,94.00
             110.50,94.00 110.50,97.02 110.50,97.02
             110.50,97.37 110.53,97.61 110.59,97.73
             110.69,97.91 110.86,98.00 111.11,98.00
             111.33,98.00 111.63,97.93 112.03,97.80
             112.03,97.80 112.25,99.77 112.25,99.77
             111.51,99.92 110.82,100.00 110.19,100.00
             109.45,100.00 108.90,99.90 108.55,99.70
             108.19,99.51 107.93,99.21 107.77,98.81
             107.60,98.41 107.52,97.75 107.52,96.84
             107.52,96.84 107.52,94.00 107.52,94.00
             107.52,94.00 106.41,94.00 106.41,94.00
             106.41,94.00 106.41,92.00 106.41,92.00
             106.41,92.00 107.52,92.00 107.52,92.00
             107.52,92.00 107.52,90.55 107.52,90.55
             107.52,90.55 110.50,89.00 110.50,89.00 Z
           M 121.53,97.00
           C 121.53,97.00 115.56,97.00 115.56,97.00
             115.61,97.30 115.74,97.53 115.95,97.67
             116.24,97.89 116.62,98.00 117.08,98.00
             117.37,98.00 117.65,98.00 117.92,98.00
             118.08,98.00 118.25,98.00 118.44,98.00
             118.44,98.00 121.38,98.00 121.38,98.00
             120.93,98.71 120.38,99.22 119.75,99.53
             119.11,99.84 118.20,100.00 117.02,100.00
             115.98,100.00 115.17,99.86 114.58,99.58
             113.99,99.29 113.50,98.84 113.11,98.22
             112.72,97.59 112.53,96.86 112.53,96.02
             112.53,94.82 112.91,93.85 113.69,93.11
             114.47,92.37 115.55,92.00 116.92,92.00
             118.04,92.00 118.91,92.18 119.55,92.53
             120.19,92.88 120.68,93.38 121.02,94.05
             121.36,94.71 121.53,95.59 121.53,96.66
             121.53,96.66 121.53,97.00 121.53,97.00 Z
           M 118.50,95.00
           C 118.44,94.65 118.28,94.39 118.03,94.23
             117.78,94.08 117.45,94.00 117.05,94.00
             116.57,94.00 116.19,94.12 115.91,94.34
             115.73,94.49 115.61,94.71 115.56,95.00
             115.56,95.00 118.50,95.00 118.50,95.00 Z
           M 121.94,92.00
           C 121.94,92.00 124.72,92.00 124.72,92.00
             124.72,92.00 124.72,94.19 124.72,94.19
             124.99,93.36 125.27,92.78 125.55,92.47
             125.84,92.16 126.19,92.00 126.61,92.00
             127.05,92.00 127.52,92.07 128.05,92.22
             128.05,92.22 127.12,94.23 127.12,94.23
             126.77,94.08 126.49,94.00 126.30,94.00
             125.90,94.00 125.60,94.17 125.39,94.52
             125.08,95.00 124.92,95.90 124.92,97.22
             124.92,97.22 124.92,100.00 124.92,100.00
             124.92,100.00 121.94,100.00 121.94,100.00
             121.94,100.00 121.94,92.00 121.94,92.00 Z
           M 76.02,107.00
           C 76.02,107.00 79.70,107.00 79.70,107.00
             79.70,107.00 81.86,110.41 81.86,110.41
             81.86,110.41 84.03,107.00 84.03,107.00
             84.03,107.00 87.70,107.00 87.70,107.00
             87.70,107.00 83.52,113.39 83.52,113.39
             83.52,113.39 83.52,118.00 83.52,118.00
             83.52,118.00 80.20,118.00 80.20,118.00
             80.20,118.00 80.20,113.39 80.20,113.39
             80.20,113.39 76.02,107.00 76.02,107.00 Z
           M 86.53,114.02
           C 86.53,112.85 86.93,111.89 87.73,111.14
             88.54,110.38 89.62,110.00 90.98,110.00
             92.54,110.00 93.71,110.45 94.52,111.33
             95.15,112.05 95.47,112.93 95.47,113.98
             95.47,115.16 95.07,116.12 94.28,116.88
             93.49,117.62 92.39,118.00 90.98,118.00
             89.73,118.00 88.72,117.69 87.95,117.06
             87.00,116.29 86.53,115.28 86.53,114.02 Z
           M 89.52,114.00
           C 89.52,114.68 89.66,115.18 89.94,115.52
             90.22,115.84 90.57,116.00 91.00,116.00
             91.43,116.00 91.77,115.84 92.05,115.52
             92.33,115.20 92.47,114.68 92.47,113.97
             92.47,113.30 92.33,112.81 92.05,112.48
             91.77,112.16 91.43,112.00 91.02,112.00
             90.58,112.00 90.22,112.17 89.94,112.50
             89.66,112.82 89.52,113.32 89.52,114.00 Z
           M 104.09,118.00
           C 104.09,118.00 101.31,118.00 101.31,118.00
             101.31,118.00 101.31,116.83 101.31,116.83
             100.89,117.26 100.47,117.56 100.05,117.73
             99.63,117.91 99.11,118.00 98.50,118.00
             97.68,118.00 97.03,117.76 96.56,117.27
             96.10,116.77 95.88,116.01 95.88,114.98
             95.88,114.98 95.88,110.00 95.88,110.00
             95.88,110.00 98.88,110.00 98.88,110.00
             98.88,110.00 98.88,114.56 98.88,114.56
             98.88,115.09 98.96,115.45 99.14,115.67
             99.32,115.89 99.57,116.00 99.91,116.00
             100.26,116.00 100.55,115.86 100.77,115.56
             100.99,115.27 101.11,114.75 101.11,113.98
             101.11,113.98 101.11,110.00 101.11,110.00
             101.11,110.00 104.09,110.00 104.09,110.00
             104.09,110.00 104.09,118.00 104.09,118.00 Z
           M 104.34,107.00
           C 104.34,107.00 114.44,107.00 114.44,107.00
             114.44,107.00 114.44,109.00 114.44,109.00
             114.44,109.00 111.05,109.00 111.05,109.00
             111.05,109.00 111.05,118.00 111.05,118.00
             111.05,118.00 107.73,118.00 107.73,118.00
             107.73,118.00 107.73,109.00 107.73,109.00
             107.73,109.00 104.34,109.00 104.34,109.00
             104.34,109.00 104.34,107.00 104.34,107.00 Z
           M 122.09,118.00
           C 122.09,118.00 119.31,118.00 119.31,118.00
             119.31,118.00 119.31,116.83 119.31,116.83
             118.89,117.26 118.47,117.56 118.05,117.73
             117.63,117.91 117.11,118.00 116.50,118.00
             115.68,118.00 115.03,117.76 114.56,117.27
             114.10,116.77 113.88,116.01 113.88,114.98
             113.88,114.98 113.88,110.00 113.88,110.00
             113.88,110.00 116.88,110.00 116.88,110.00
             116.88,110.00 116.88,114.56 116.88,114.56
             116.88,115.09 116.96,115.45 117.14,115.67
             117.32,115.89 117.57,116.00 117.91,116.00
             118.26,116.00 118.55,115.86 118.77,115.56
             118.99,115.27 119.11,114.75 119.11,113.98
             119.11,113.98 119.11,110.00 119.11,110.00
             119.11,110.00 122.09,110.00 122.09,110.00
             122.09,110.00 122.09,118.00 122.09,118.00 Z
           M 122.92,107.00
           C 122.92,107.00 125.92,107.00 125.92,107.00
             125.92,107.00 125.92,111.34 125.92,111.34
             126.22,110.90 126.56,110.56 126.94,110.34
             127.31,110.12 127.73,110.00 128.20,110.00
             129.15,110.00 129.93,110.34 130.55,111.02
             131.17,111.68 131.48,112.64 131.48,113.89
             131.48,114.73 131.34,115.46 131.06,116.11
             130.78,116.75 130.38,117.22 129.88,117.53
             129.38,117.84 128.82,118.00 128.22,118.00
             127.69,118.00 127.21,117.86 126.78,117.58
             126.45,117.36 126.09,116.95 125.70,116.36
             125.70,116.36 125.70,118.00 125.70,118.00
             125.70,118.00 122.92,118.00 122.92,118.00
             122.92,118.00 122.92,107.00 122.92,107.00 Z
           M 125.91,113.95
           C 125.91,114.67 126.03,115.20 126.28,115.52
             126.53,115.84 126.85,116.00 127.23,116.00
             127.60,116.00 127.90,115.84 128.14,115.53
             128.38,115.21 128.50,114.67 128.50,113.92
             128.50,113.26 128.38,112.77 128.14,112.47
             127.91,112.16 127.62,112.00 127.28,112.00
             126.88,112.00 126.54,112.16 126.28,112.48
             126.03,112.81 125.91,113.30 125.91,113.95 Z
           M 140.53,115.00
           C 140.53,115.00 134.56,115.00 134.56,115.00
             134.61,115.30 134.74,115.53 134.95,115.67
             135.24,115.89 135.62,116.00 136.08,116.00
             136.37,116.00 136.65,116.00 136.92,116.00
             137.08,116.00 137.25,116.00 137.44,116.00
             137.44,116.00 140.38,116.00 140.38,116.00
             139.93,116.71 139.38,117.22 138.75,117.53
             138.11,117.84 137.20,118.00 136.02,118.00
             134.98,118.00 134.17,117.86 133.58,117.58
             132.99,117.29 132.50,116.84 132.11,116.22
             131.72,115.59 131.53,114.86 131.53,114.02
             131.53,112.82 131.91,111.85 132.69,111.11
             133.47,110.37 134.55,110.00 135.92,110.00
             137.04,110.00 137.91,110.18 138.55,110.53
             139.19,110.88 139.68,111.38 140.02,112.05
             140.36,112.71 140.53,113.59 140.53,114.66
             140.53,114.66 140.53,115.00 140.53,115.00 Z
           M 137.50,113.00
           C 137.44,112.65 137.28,112.39 137.03,112.23
             136.78,112.08 136.45,112.00 136.05,112.00
             135.57,112.00 135.19,112.12 134.91,112.34
             134.73,112.49 134.61,112.71 134.56,113.00
             134.56,113.00 137.50,113.00 137.50,113.00 Z" />
</svg>
