<?xml version="1.0" encoding="UTF-8" standalone="no"?>
<!DOCTYPE svg PUBLIC "-//W3C//DTD SVG 20010904//EN"
              "http://www.w3.org/TR/2001/REC-SVG-20010904/DTD/svg10.dtd">

<svg xmlns="http://www.w3.org/2000/svg"
     width="11.1111in" height="8.33333in"
     viewBox="0 0 800 600">
  <path id="Path"
        fill="none" stroke="black" stroke-width="1"
        d="M 217.33,139.39
           C 217.33,141.54 216.88,143.46 216.00,145.16
             215.12,146.84 213.92,148.25 212.39,149.36
             210.62,150.67 208.66,151.61 206.53,152.17
             204.41,152.73 201.71,153.00 198.44,153.00
             198.44,153.00 178.75,153.00 178.75,153.00
             178.75,153.00 178.75,108.00 178.75,108.00
             178.75,108.00 196.25,108.00 196.25,108.00
             199.88,108.00 202.55,108.12 204.23,108.38
             205.92,108.62 207.59,109.16 209.23,110.00
             210.95,110.88 212.23,112.05 213.06,113.53
             213.91,115.01 214.33,116.70 214.33,118.61
             214.33,120.82 213.75,122.77 212.59,124.45
             211.45,126.14 209.82,127.45 207.72,128.39
             207.72,128.39 207.72,128.64 207.72,128.64
             210.66,129.21 213.00,130.41 214.73,132.22
             216.46,134.03 217.33,136.42 217.33,139.39 Z
           M 202.42,120.70
           C 202.42,119.92 202.23,119.14 201.86,118.36
             201.48,117.57 200.82,116.98 199.88,116.61
             199.03,116.27 197.98,116.08 196.72,116.05
             195.46,116.02 193.69,116.00 191.41,116.00
             191.41,116.00 190.31,116.00 190.31,116.00
             190.31,116.00 190.31,126.00 190.31,126.00
             190.31,126.00 192.12,126.00 192.12,126.00
             193.97,126.00 195.54,125.97 196.83,125.91
             198.12,125.84 199.13,125.63 199.88,125.27
             200.93,124.79 201.61,124.16 201.94,123.39
             202.26,122.61 202.42,121.71 202.42,120.70 Z
           M 205.27,139.39
           C 205.27,138.00 204.98,136.92 204.42,136.16
             203.87,135.40 202.93,134.82 201.61,134.44
             200.69,134.19 199.44,134.05 197.84,134.03
             196.25,134.01 194.59,134.00 192.86,134.00
             192.86,134.00 190.31,134.00 190.31,134.00
             190.31,134.00 190.31,145.00 190.31,145.00
             190.31,145.00 191.16,145.00 191.16,145.00
             194.43,145.00 196.77,144.99 198.17,144.97
             199.59,144.95 200.89,144.70 202.09,144.20
             203.30,143.70 204.13,143.05 204.58,142.23
             205.04,141.41 205.27,140.46 205.27,139.39 Z
           M 258.62,138.00
           C 258.62,138.00 233.69,138.00 233.69,138.00
             233.85,140.59 234.87,142.56 236.73,143.94
             238.60,145.31 241.35,146.00 244.98,146.00
             247.29,146.00 249.52,145.58 251.67,144.73
             253.83,143.88 255.53,142.97 256.78,142.00
             256.78,142.00 258.00,142.00 258.00,142.00
             258.00,142.00 258.00,151.08 258.00,151.08
             255.54,152.11 253.22,152.86 251.03,153.31
             248.85,153.77 246.44,154.00 243.80,154.00
             236.97,154.00 231.74,152.46 228.11,149.39
             224.48,146.32 222.67,141.95 222.67,136.27
             222.67,130.65 224.39,126.20 227.83,122.92
             231.27,119.64 235.98,118.00 241.98,118.00
             247.50,118.00 251.66,119.40 254.44,122.19
             257.23,124.97 258.62,128.98 258.62,134.20
             258.62,134.20 258.62,138.00 258.62,138.00 Z
           M 247.80,132.00
           C 247.73,129.68 247.16,127.93 246.09,126.77
             245.03,125.59 243.37,125.00 241.11,125.00
             239.00,125.00 237.27,125.56 235.92,126.67
             234.58,127.78 233.82,129.55 233.66,132.00
             233.66,132.00 247.80,132.00 247.80,132.00 Z
           M 287.89,153.08
           C 286.72,153.37 285.48,153.59 284.17,153.75
             282.86,153.91 281.25,154.00 279.34,154.00
             275.10,154.00 271.95,153.12 269.88,151.36
             267.81,149.60 266.78,146.59 266.78,142.31
             266.78,142.31 266.78,126.00 266.78,126.00
             266.78,126.00 262.30,126.00 262.30,126.00
             262.30,126.00 262.30,119.00 262.30,119.00
             262.30,119.00 266.78,119.00 266.78,119.00
             266.78,119.00 266.78,109.00 266.78,109.00
             266.78,109.00 277.69,109.00 277.69,109.00
             277.69,109.00 277.69,119.00 277.69,119.00
             277.69,119.00 287.89,119.00 287.89,119.00
             287.89,119.00 287.89,126.00 287.89,126.00
             287.89,126.00 277.69,126.00 277.69,126.00
             277.69,126.00 277.69,138.73 277.69,138.73
             277.69,140.00 277.70,141.10 277.72,142.05
             277.74,142.98 277.90,143.82 278.20,144.56
             278.48,145.31 278.98,145.91 279.70,146.34
             280.42,146.78 281.46,147.00 282.83,147.00
             283.40,147.00 284.14,146.89 285.06,146.66
             285.98,146.42 286.62,146.20 286.98,146.00
             286.98,146.00 287.89,146.00 287.89,146.00
             287.89,146.00 287.89,153.08 287.89,153.08 Z
           M 315.89,153.08
           C 314.72,153.37 313.48,153.59 312.17,153.75
             310.86,153.91 309.25,154.00 307.34,154.00
             303.10,154.00 299.95,153.12 297.88,151.36
             295.81,149.60 294.78,146.59 294.78,142.31
             294.78,142.31 294.78,126.00 294.78,126.00
             294.78,126.00 290.30,126.00 290.30,126.00
             290.30,126.00 290.30,119.00 290.30,119.00
             290.30,119.00 294.78,119.00 294.78,119.00
             294.78,119.00 294.78,109.00 294.78,109.00
             294.78,109.00 305.69,109.00 305.69,109.00
             305.69,109.00 305.69,119.00 305.69,119.00
             305.69,119.00 315.89,119.00 315.89,119.00
             315.89,119.00 315.89,126.00 315.89,126.00
             315.89,126.00 305.69,126.00 305.69,126.00
             305.69,126.00 305.69,138.73 305.69,138.73
             305.69,140.00 305.70,141.10 305.72,142.05
             305.74,142.98 305.90,143.82 306.20,144.56
             306.48,145.31 306.98,145.91 307.70,146.34
             308.42,146.78 309.46,147.00 310.83,147.00
             311.40,147.00 312.14,146.89 313.06,146.66
             313.98,146.42 314.62,146.20 314.98,146.00
             314.98,146.00 315.89,146.00 315.89,146.00
             315.89,146.00 315.89,153.08 315.89,153.08 Z
           M 355.62,138.00
           C 355.62,138.00 330.69,138.00 330.69,138.00
             330.85,140.59 331.87,142.56 333.73,143.94
             335.60,145.31 338.35,146.00 341.98,146.00
             344.29,146.00 346.52,145.58 348.67,144.73
             350.83,143.88 352.53,142.97 353.78,142.00
             353.78,142.00 355.00,142.00 355.00,142.00
             355.00,142.00 355.00,151.08 355.00,151.08
             352.54,152.11 350.22,152.86 348.03,153.31
             345.85,153.77 343.44,154.00 340.80,154.00
             333.97,154.00 328.74,152.46 325.11,149.39
             321.48,146.32 319.67,141.95 319.67,136.27
             319.67,130.65 321.39,126.20 324.83,122.92
             328.27,119.64 332.98,118.00 338.98,118.00
             344.50,118.00 348.66,119.40 351.44,122.19
             354.23,124.97 355.62,128.98 355.62,134.20
             355.62,134.20 355.62,138.00 355.62,138.00 Z
           M 344.80,132.00
           C 344.73,129.68 344.16,127.93 343.09,126.77
             342.03,125.59 340.37,125.00 338.11,125.00
             336.00,125.00 334.27,125.56 332.92,126.67
             331.58,127.78 330.82,129.55 330.66,132.00
             330.66,132.00 344.80,132.00 344.80,132.00 Z
           M 387.80,128.00
           C 387.80,128.00 386.83,128.00 386.83,128.00
             386.36,128.00 385.61,128.00 384.58,128.00
             383.55,128.00 382.70,128.00 382.02,128.00
             380.46,128.00 379.09,128.11 377.89,128.31
             376.70,128.52 375.42,128.88 374.05,129.38
             374.05,129.38 374.05,153.00 374.05,153.00
             374.05,153.00 363.14,153.00 363.14,153.00
             363.14,153.00 363.14,119.00 363.14,119.00
             363.14,119.00 374.05,119.00 374.05,119.00
             374.05,119.00 374.05,124.00 374.05,124.00
             376.45,121.94 378.54,120.59 380.31,119.95
             382.09,119.32 383.73,119.00 385.22,119.00
             385.60,119.00 386.04,119.01 386.52,119.03
             387.00,119.04 387.43,119.07 387.80,119.11
             387.80,119.11 387.80,128.00 387.80,128.00 Z
           M 192.41,185.00
           C 192.41,185.00 175.80,212.59 175.80,212.59
             175.80,212.59 175.80,230.00 175.80,230.00
             175.80,230.00 164.17,230.00 164.17,230.00
             164.17,230.00 164.17,213.14 164.17,213.14
             164.17,213.14 147.27,185.00 147.27,185.00
             147.27,185.00 160.47,185.00 160.47,185.00
             160.47,185.00 170.22,202.41 170.22,202.41
             170.22,202.41 179.62,185.00 179.62,185.00
             179.62,185.00 192.41,185.00 192.41,185.00 Z
           M 228.91,213.02
           C 228.91,218.59 227.27,222.98 224.02,226.19
             220.75,229.40 216.18,231.00 210.28,231.00
             204.39,231.00 199.82,229.40 196.56,226.19
             193.30,222.98 191.67,218.59 191.67,213.02
             191.67,207.40 193.31,203.00 196.59,199.80
             199.88,196.60 204.44,195.00 210.28,195.00
             216.22,195.00 220.80,196.61 224.05,199.83
             227.29,203.05 228.91,207.45 228.91,213.02 Z
           M 215.48,220.92
           C 216.19,220.09 216.72,219.09 217.08,217.92
             217.43,216.76 217.61,215.14 217.61,213.08
             217.61,211.16 217.43,209.56 217.06,208.27
             216.70,206.98 216.19,205.95 215.55,205.17
             214.90,204.38 214.12,203.82 213.22,203.50
             212.31,203.17 211.33,203.00 210.28,203.00
             209.23,203.00 208.29,203.14 207.47,203.41
             206.66,203.68 205.88,204.22 205.14,205.03
             204.47,205.78 203.94,206.81 203.55,208.12
             203.15,209.44 202.95,211.09 202.95,213.08
             202.95,214.85 203.12,216.39 203.47,217.69
             203.81,218.99 204.32,220.04 204.98,220.83
             205.63,221.58 206.40,222.13 207.30,222.48
             208.19,222.83 209.22,223.00 210.38,223.00
             211.36,223.00 212.30,222.84 213.20,222.53
             214.10,222.21 214.86,221.67 215.48,220.92 Z
           M 267.02,230.00
           C 267.02,230.00 256.12,230.00 256.12,230.00
             256.12,230.00 256.12,226.30 256.12,226.30
             254.10,227.84 252.25,229.01 250.58,229.81
             248.91,230.60 246.91,231.00 244.59,231.00
             240.83,231.00 237.94,229.92 235.91,227.77
             233.88,225.60 232.88,222.40 232.88,218.17
             232.88,218.17 232.88,196.00 232.88,196.00
             232.88,196.00 243.83,196.00 243.83,196.00
             243.83,196.00 243.83,212.78 243.83,212.78
             243.83,214.49 243.88,215.91 243.98,217.05
             244.10,218.18 244.36,219.12 244.77,219.86
             245.15,220.60 245.73,221.14 246.50,221.48
             247.28,221.83 248.37,222.00 249.77,222.00
             250.69,222.00 251.72,221.83 252.84,221.48
             253.98,221.14 255.07,220.64 256.12,219.98
             256.12,219.98 256.12,196.00 256.12,196.00
             256.12,196.00 267.02,196.00 267.02,196.00
             267.02,196.00 267.02,230.00 267.02,230.00 Z
           M 309.02,194.00
           C 309.02,194.00 294.94,194.00 294.94,194.00
             294.94,194.00 294.94,230.00 294.94,230.00
             294.94,230.00 283.31,230.00 283.31,230.00
             283.31,230.00 283.31,194.00 283.31,194.00
             283.31,194.00 269.23,194.00 269.23,194.00
             269.23,194.00 269.23,185.00 269.23,185.00
             269.23,185.00 309.02,185.00 309.02,185.00
             309.02,185.00 309.02,194.00 309.02,194.00 Z
           M 345.02,230.00
           C 345.02,230.00 334.12,230.00 334.12,230.00
             334.12,230.00 334.12,226.30 334.12,226.30
             332.10,227.84 330.25,229.01 328.58,229.81
             326.91,230.60 324.91,231.00 322.59,231.00
             318.83,231.00 315.94,229.92 313.91,227.77
             311.88,225.60 310.88,222.40 310.88,218.17
             310.88,218.17 310.88,196.00 310.88,196.00
             310.88,196.00 321.83,196.00 321.83,196.00
             321.83,196.00 321.83,212.78 321.83,212.78
             321.83,214.49 321.88,215.91 321.98,217.05
             322.10,218.18 322.36,219.12 322.77,219.86
             323.15,220.60 323.73,221.14 324.50,221.48
             325.28,221.83 326.37,222.00 327.77,222.00
             328.69,222.00 329.72,221.83 330.84,221.48
             331.98,221.14 333.07,220.64 334.12,219.98
             334.12,219.98 334.12,196.00 334.12,196.00
             334.12,196.00 345.02,196.00 345.02,196.00
             345.02,196.00 345.02,230.00 345.02,230.00 Z
           M 386.62,212.66
           C 386.62,218.07 385.14,222.48 382.19,225.89
             379.23,229.30 375.54,231.00 371.12,231.00
             369.23,231.00 367.56,230.74 366.12,230.22
             364.70,229.71 363.34,229.07 362.05,228.30
             362.05,228.30 361.59,230.00 361.59,230.00
             361.59,230.00 351.14,230.00 351.14,230.00
             351.14,230.00 351.14,183.00 351.14,183.00
             351.14,183.00 362.05,183.00 362.05,183.00
             362.05,183.00 362.05,199.48 362.05,199.48
             363.72,198.15 365.43,197.07 367.17,196.25
             368.92,195.42 370.94,195.00 373.22,195.00
             377.51,195.00 380.82,196.57 383.14,199.70
             385.46,202.83 386.62,207.15 386.62,212.66 Z
           M 375.39,212.62
           C 375.39,209.54 374.88,207.17 373.84,205.50
             372.81,203.84 370.98,203.00 368.34,203.00
             367.31,203.00 366.25,203.16 365.16,203.48
             364.07,203.80 363.04,204.26 362.05,204.86
             362.05,204.86 362.05,222.27 362.05,222.27
             362.84,222.55 363.58,222.74 364.28,222.84
             364.99,222.95 365.84,223.00 366.83,223.00
             369.71,223.00 371.86,222.14 373.27,220.41
             374.68,218.68 375.39,216.09 375.39,212.62 Z
           M 423.62,215.00
           C 423.62,215.00 398.69,215.00 398.69,215.00
             398.85,217.59 399.87,219.56 401.73,220.94
             403.60,222.31 406.35,223.00 409.98,223.00
             412.29,223.00 414.52,222.58 416.67,221.73
             418.83,220.88 420.53,219.97 421.78,219.00
             421.78,219.00 423.00,219.00 423.00,219.00
             423.00,219.00 423.00,228.08 423.00,228.08
             420.54,229.11 418.22,229.86 416.03,230.31
             413.85,230.77 411.44,231.00 408.80,231.00
             401.97,231.00 396.74,229.46 393.11,226.39
             389.48,223.32 387.67,218.95 387.67,213.27
             387.67,207.65 389.39,203.20 392.83,199.92
             396.27,196.64 400.98,195.00 406.98,195.00
             412.50,195.00 416.66,196.40 419.44,199.19
             422.23,201.97 423.62,205.98 423.62,211.20
             423.62,211.20 423.62,215.00 423.62,215.00 Z
           M 412.80,209.00
           C 412.73,206.68 412.16,204.93 411.09,203.77
             410.03,202.59 408.37,202.00 406.11,202.00
             404.00,202.00 402.27,202.56 400.92,203.67
             399.58,204.78 398.82,206.55 398.66,209.00
             398.66,209.00 412.80,209.00 412.80,209.00 Z" />
</svg>
