<?xml version="1.0" encoding="UTF-8" standalone="no"?>
<!DOCTYPE svg PUBLIC "-//W3C//DTD SVG 20010904//EN"
              "http://www.w3.org/TR/2001/REC-SVG-20010904/DTD/svg10.dtd">

<svg xmlns="http://www.w3.org/2000/svg"
     width="0.972222in" height="0.555556in"
     viewBox="0 0 70 40">
  <path id=" Better ..."
        fill="none" stroke="black" stroke-width="1"
        d="M 5.11,5.00
           C 5.11,5.00 11.31,5.00 11.31,5.00
             12.35,5.00 13.15,5.25 13.70,5.73
             14.25,6.23 14.53,6.83 14.53,7.55
             14.53,8.16 14.33,8.68 13.94,9.11
             13.68,9.40 13.29,9.63 12.78,9.80
             13.55,10.00 14.12,10.34 14.48,10.84
             14.85,11.34 15.03,11.95 15.03,12.69
             15.03,13.29 14.90,13.84 14.64,14.31
             14.38,14.79 14.02,15.17 13.58,15.45
             13.30,15.63 12.88,15.76 12.33,15.84
             11.58,15.95 11.08,16.00 10.83,16.00
             10.83,16.00 5.11,16.00 5.11,16.00
             5.11,16.00 5.11,5.00 5.11,5.00 Z
           M 8.45,9.00
           C 8.45,9.00 9.89,9.00 9.89,9.00
             10.41,9.00 10.77,8.91 10.97,8.73
             11.18,8.56 11.28,8.31 11.28,7.98
             11.28,7.67 11.18,7.43 10.97,7.27
             10.77,7.09 10.42,7.00 9.92,7.00
             9.92,7.00 8.45,7.00 8.45,7.00
             8.45,7.00 8.45,9.00 8.45,9.00 Z
           M 8.45,14.00
           C 8.45,14.00 10.14,14.00 10.14,14.00
             10.71,14.00 11.11,13.86 11.34,13.58
             11.58,13.30 11.70,12.92 11.70,12.45
             11.70,12.02 11.58,11.67 11.34,11.41
             11.11,11.14 10.71,11.00 10.14,11.00
             10.14,11.00 8.45,11.00 8.45,11.00
             8.45,11.00 8.45,14.00 8.45,14.00 Z
           M 24.53,13.00
           C 24.53,13.00 18.56,13.00 18.56,13.00
             18.61,13.30 18.74,13.53 18.95,13.67
             19.24,13.89 19.62,14.00 20.08,14.00
             20.37,14.00 20.65,14.00 20.92,14.00
             21.08,14.00 21.25,14.00 21.44,14.00
             21.44,14.00 24.38,14.00 24.38,14.00
             23.93,14.71 23.38,15.22 22.75,15.53
             22.11,15.84 21.20,16.00 20.02,16.00
             18.98,16.00 18.17,15.86 17.58,15.58
             16.99,15.29 16.50,14.84 16.11,14.22
             15.72,13.59 15.53,12.86 15.53,12.02
             15.53,10.82 15.91,9.85 16.69,9.11
             17.47,8.37 18.55,8.00 19.92,8.00
             21.04,8.00 21.91,8.18 22.55,8.53
             23.19,8.88 23.68,9.38 24.02,10.05
             24.36,10.71 24.53,11.59 24.53,12.66
             24.53,12.66 24.53,13.00 24.53,13.00 Z
           M 21.50,11.00
           C 21.44,10.65 21.28,10.39 21.03,10.23
             20.78,10.08 20.45,10.00 20.05,10.00
             19.57,10.00 19.19,10.12 18.91,10.34
             18.73,10.49 18.61,10.71 18.56,11.00
             18.56,11.00 21.50,11.00 21.50,11.00 Z
           M 28.50,5.00
           C 28.50,5.00 28.50,8.00 28.50,8.00
             28.50,8.00 30.14,8.00 30.14,8.00
             30.14,8.00 30.14,10.00 30.14,10.00
             30.14,10.00 28.50,10.00 28.50,10.00
             28.50,10.00 28.50,13.02 28.50,13.02
             28.50,13.37 28.53,13.61 28.59,13.73
             28.69,13.91 28.86,14.00 29.11,14.00
             29.33,14.00 29.63,13.93 30.03,13.80
             30.03,13.80 30.25,15.77 30.25,15.77
             29.51,15.92 28.82,16.00 28.19,16.00
             27.45,16.00 26.90,15.90 26.55,15.70
             26.19,15.51 25.93,15.21 25.77,14.81
             25.60,14.41 25.52,13.75 25.52,12.84
             25.52,12.84 25.52,10.00 25.52,10.00
             25.52,10.00 24.41,10.00 24.41,10.00
             24.41,10.00 24.41,8.00 24.41,8.00
             24.41,8.00 25.52,8.00 25.52,8.00
             25.52,8.00 25.52,6.55 25.52,6.55
             25.52,6.55 28.50,5.00 28.50,5.00 Z
           M 34.50,5.00
           C 34.50,5.00 34.50,8.00 34.50,8.00
             34.50,8.00 36.14,8.00 36.14,8.00
             36.14,8.00 36.14,10.00 36.14,10.00
             36.14,10.00 34.50,10.00 34.50,10.00
             34.50,10.00 34.50,13.02 34.50,13.02
             34.50,13.37 34.53,13.61 34.59,13.73
             34.69,13.91 34.86,14.00 35.11,14.00
             35.33,14.00 35.63,13.93 36.03,13.80
             36.03,13.80 36.25,15.77 36.25,15.77
             35.51,15.92 34.82,16.00 34.19,16.00
             33.45,16.00 32.90,15.90 32.55,15.70
             32.19,15.51 31.93,15.21 31.77,14.81
             31.60,14.41 31.52,13.75 31.52,12.84
             31.52,12.84 31.52,10.00 31.52,10.00
             31.52,10.00 30.41,10.00 30.41,10.00
             30.41,10.00 30.41,8.00 30.41,8.00
             30.41,8.00 31.52,8.00 31.52,8.00
             31.52,8.00 31.52,6.55 31.52,6.55
             31.52,6.55 34.50,5.00 34.50,5.00 Z
           M 45.53,13.00
           C 45.53,13.00 39.56,13.00 39.56,13.00
             39.61,13.30 39.74,13.53 39.95,13.67
             40.24,13.89 40.62,14.00 41.08,14.00
             41.37,14.00 41.65,14.00 41.92,14.00
             42.08,14.00 42.25,14.00 42.44,14.00
             42.44,14.00 45.38,14.00 45.38,14.00
             44.93,14.71 44.38,15.22 43.75,15.53
             43.11,15.84 42.20,16.00 41.02,16.00
             39.98,16.00 39.17,15.86 38.58,15.58
             37.99,15.29 37.50,14.84 37.11,14.22
             36.72,13.59 36.53,12.86 36.53,12.02
             36.53,10.82 36.91,9.85 37.69,9.11
             38.47,8.37 39.55,8.00 40.92,8.00
             42.04,8.00 42.91,8.18 43.55,8.53
             44.19,8.88 44.68,9.38 45.02,10.05
             45.36,10.71 45.53,11.59 45.53,12.66
             45.53,12.66 45.53,13.00 45.53,13.00 Z
           M 42.50,11.00
           C 42.44,10.65 42.28,10.39 42.03,10.23
             41.78,10.08 41.45,10.00 41.05,10.00
             40.57,10.00 40.19,10.12 39.91,10.34
             39.73,10.49 39.61,10.71 39.56,11.00
             39.56,11.00 42.50,11.00 42.50,11.00 Z
           M 45.94,8.00
           C 45.94,8.00 48.72,8.00 48.72,8.00
             48.72,8.00 48.72,10.19 48.72,10.19
             48.99,9.36 49.27,8.78 49.55,8.47
             49.84,8.16 50.19,8.00 50.61,8.00
             51.05,8.00 51.52,8.07 52.05,8.22
             52.05,8.22 51.12,10.23 51.12,10.23
             50.77,10.08 50.49,10.00 50.30,10.00
             49.90,10.00 49.60,10.17 49.39,10.52
             49.08,11.00 48.92,11.90 48.92,13.22
             48.92,13.22 48.92,16.00 48.92,16.00
             48.92,16.00 45.94,16.00 45.94,16.00
             45.94,16.00 45.94,8.00 45.94,8.00 Z
           M 0.02,23.00
           C 0.02,23.00 3.70,23.00 3.70,23.00
             3.70,23.00 5.86,26.41 5.86,26.41
             5.86,26.41 8.03,23.00 8.03,23.00
             8.03,23.00 11.70,23.00 11.70,23.00
             11.70,23.00 7.52,29.39 7.52,29.39
             7.52,29.39 7.52,34.00 7.52,34.00
             7.52,34.00 4.20,34.00 4.20,34.00
             4.20,34.00 4.20,29.39 4.20,29.39
             4.20,29.39 0.02,23.00 0.02,23.00 Z
           M 10.53,30.02
           C 10.53,28.85 10.93,27.89 11.73,27.14
             12.54,26.38 13.62,26.00 14.98,26.00
             16.54,26.00 17.71,26.45 18.52,27.33
             19.15,28.05 19.47,28.93 19.47,29.98
             19.47,31.16 19.07,32.12 18.28,32.88
             17.49,33.62 16.39,34.00 14.98,34.00
             13.73,34.00 12.72,33.69 11.95,33.06
             11.00,32.29 10.53,31.28 10.53,30.02 Z
           M 13.52,30.00
           C 13.52,30.68 13.66,31.18 13.94,31.52
             14.22,31.84 14.57,32.00 15.00,32.00
             15.43,32.00 15.77,31.84 16.05,31.52
             16.33,31.20 16.47,30.68 16.47,29.97
             16.47,29.30 16.33,28.81 16.05,28.48
             15.77,28.16 15.43,28.00 15.02,28.00
             14.58,28.00 14.22,28.17 13.94,28.50
             13.66,28.82 13.52,29.32 13.52,30.00 Z
           M 28.09,34.00
           C 28.09,34.00 25.31,34.00 25.31,34.00
             25.31,34.00 25.31,32.83 25.31,32.83
             24.89,33.26 24.47,33.56 24.05,33.73
             23.63,33.91 23.11,34.00 22.50,34.00
             21.68,34.00 21.03,33.76 20.56,33.27
             20.10,32.77 19.88,32.01 19.88,30.98
             19.88,30.98 19.88,26.00 19.88,26.00
             19.88,26.00 22.88,26.00 22.88,26.00
             22.88,26.00 22.88,30.56 22.88,30.56
             22.88,31.09 22.96,31.45 23.14,31.67
             23.32,31.89 23.57,32.00 23.91,32.00
             24.26,32.00 24.55,31.86 24.77,31.56
             24.99,31.27 25.11,30.75 25.11,29.98
             25.11,29.98 25.11,26.00 25.11,26.00
             25.11,26.00 28.09,26.00 28.09,26.00
             28.09,26.00 28.09,34.00 28.09,34.00 Z
           M 28.34,23.00
           C 28.34,23.00 38.44,23.00 38.44,23.00
             38.44,23.00 38.44,25.00 38.44,25.00
             38.44,25.00 35.05,25.00 35.05,25.00
             35.05,25.00 35.05,34.00 35.05,34.00
             35.05,34.00 31.73,34.00 31.73,34.00
             31.73,34.00 31.73,25.00 31.73,25.00
             31.73,25.00 28.34,25.00 28.34,25.00
             28.34,25.00 28.34,23.00 28.34,23.00 Z
           M 46.09,34.00
           C 46.09,34.00 43.31,34.00 43.31,34.00
             43.31,34.00 43.31,32.83 43.31,32.83
             42.89,33.26 42.47,33.56 42.05,33.73
             41.63,33.91 41.11,34.00 40.50,34.00
             39.68,34.00 39.03,33.76 38.56,33.27
             38.10,32.77 37.88,32.01 37.88,30.98
             37.88,30.98 37.88,26.00 37.88,26.00
             37.88,26.00 40.88,26.00 40.88,26.00
             40.88,26.00 40.88,30.56 40.88,30.56
             40.88,31.09 40.96,31.45 41.14,31.67
             41.32,31.89 41.57,32.00 41.91,32.00
             42.26,32.00 42.55,31.86 42.77,31.56
             42.99,31.27 43.11,30.75 43.11,29.98
             43.11,29.98 43.11,26.00 43.11,26.00
             43.11,26.00 46.09,26.00 46.09,26.00
             46.09,26.00 46.09,34.00 46.09,34.00 Z
           M 46.92,23.00
           C 46.92,23.00 49.92,23.00 49.92,23.00
             49.92,23.00 49.92,27.34 49.92,27.34
             50.22,26.90 50.56,26.56 50.94,26.34
             51.31,26.12 51.73,26.00 52.20,26.00
             53.15,26.00 53.93,26.34 54.55,27.02
             55.17,27.68 55.48,28.64 55.48,29.89
             55.48,30.73 55.34,31.46 55.06,32.11
             54.78,32.75 54.38,33.22 53.88,33.53
             53.38,33.84 52.82,34.00 52.22,34.00
             51.69,34.00 51.21,33.86 50.78,33.58
             50.45,33.36 50.09,32.95 49.70,32.36
             49.70,32.36 49.70,34.00 49.70,34.00
             49.70,34.00 46.92,34.00 46.92,34.00
             46.92,34.00 46.92,23.00 46.92,23.00 Z
           M 49.91,29.95
           C 49.91,30.67 50.03,31.20 50.28,31.52
             50.53,31.84 50.85,32.00 51.23,32.00
             51.60,32.00 51.90,31.84 52.14,31.53
             52.38,31.21 52.50,30.67 52.50,29.92
             52.50,29.26 52.38,28.77 52.14,28.47
             51.91,28.16 51.62,28.00 51.28,28.00
             50.88,28.00 50.54,28.16 50.28,28.48
             50.03,28.81 49.91,29.30 49.91,29.95 Z
           M 64.53,31.00
           C 64.53,31.00 58.56,31.00 58.56,31.00
             58.61,31.30 58.74,31.53 58.95,31.67
             59.24,31.89 59.62,32.00 60.08,32.00
             60.37,32.00 60.65,32.00 60.92,32.00
             61.08,32.00 61.25,32.00 61.44,32.00
             61.44,32.00 64.38,32.00 64.38,32.00
             63.93,32.71 63.38,33.22 62.75,33.53
             62.11,33.84 61.20,34.00 60.02,34.00
             58.98,34.00 58.17,33.86 57.58,33.58
             56.99,33.29 56.50,32.84 56.11,32.22
             55.72,31.59 55.53,30.86 55.53,30.02
             55.53,28.82 55.91,27.85 56.69,27.11
             57.47,26.37 58.55,26.00 59.92,26.00
             61.04,26.00 61.91,26.18 62.55,26.53
             63.19,26.88 63.68,27.38 64.02,28.05
             64.36,28.71 64.53,29.59 64.53,30.66
             64.53,30.66 64.53,31.00 64.53,31.00 Z
           M 61.50,29.00
           C 61.44,28.65 61.28,28.39 61.03,28.23
             60.78,28.08 60.45,28.00 60.05,28.00
             59.57,28.00 59.19,28.12 58.91,28.34
             58.73,28.49 58.61,28.71 58.56,29.00
             58.56,29.00 61.50,29.00 61.50,29.00 Z" />
</svg>
