<?xml version="1.0" encoding="UTF-8" standalone="no"?>
<!DOCTYPE svg PUBLIC "-//W3C//DTD SVG 20010904//EN"
              "http://www.w3.org/TR/2001/REC-SVG-20010904/DTD/svg10.dtd">

<svg xmlns="http://www.w3.org/2000/svg"
     width="4.41667in" height="1.375in"
     viewBox="0 0 318 99">
  <path id="Imported Path #6"
        fill="none" stroke="black" stroke-width="1"
        d="M 54.90,95.70
           C 51.80,93.60 49.60,90.40 48.30,86.00
             47.00,81.60 46.40,75.80 46.40,68.50
             46.40,68.50 46.40,58.60 46.40,58.60
             46.40,51.30 47.10,45.30 48.60,40.90
             50.10,36.40 52.40,33.20 55.60,31.20
             58.80,29.20 62.90,28.10 68.00,28.10
             73.00,28.10 77.10,29.10 80.10,31.20
             83.10,33.30 85.40,36.50 86.80,40.90
             88.20,45.30 88.90,51.20 88.90,58.50
             88.90,58.50 88.90,68.40 88.90,68.40
             88.90,75.70 88.20,81.50 86.80,85.90
             85.40,90.30 83.20,93.50 80.10,95.60
             77.00,97.60 72.80,98.70 67.60,98.70
             62.20,98.80 58.00,97.70 54.90,95.70 Z
           M 72.20,85.00
           C 73.10,82.80 73.50,79.10 73.50,74.10
             73.50,74.10 73.50,52.80 73.50,52.80
             73.50,47.90 73.10,44.30 72.20,42.10
             71.30,39.80 69.80,38.70 67.70,38.70
             65.60,38.70 64.20,39.80 63.30,42.10
             62.40,44.40 62.00,47.90 62.00,52.80
             62.00,52.80 62.00,74.10 62.00,74.10
             62.00,79.10 62.40,82.80 63.20,85.00
             64.00,87.20 65.50,88.30 67.70,88.30
             69.80,88.30 71.30,87.20 72.20,85.00 Z
           M 291.40,68.70
           C 291.40,68.70 291.40,72.20 291.40,72.20
             291.40,76.60 291.50,79.90 291.80,82.10
             292.10,84.30 292.60,85.90 293.40,86.90
             294.20,87.90 295.50,88.40 297.20,88.40
             299.50,88.40 301.10,87.50 301.90,85.70
             302.80,83.90 303.20,80.90 303.30,76.80
             303.30,76.80 316.60,77.60 316.60,77.60
             316.70,78.20 316.70,79.00 316.70,80.00
             316.70,86.30 315.00,91.00 311.50,94.10
             308.00,97.20 303.20,98.80 296.90,98.80
             289.30,98.80 284.00,96.40 281.00,91.70
             278.00,87.00 276.40,79.60 276.40,69.70
             276.40,69.70 276.40,57.60 276.40,57.60
             276.40,47.40 278.00,39.90 281.10,35.20
             284.30,30.50 289.70,28.10 297.30,28.10
             302.60,28.10 306.60,29.10 309.40,31.00
             312.20,32.90 314.20,35.90 315.40,40.00
             316.60,44.10 317.10,49.70 317.10,56.90
             317.10,56.90 317.10,68.60 317.10,68.60
             317.10,68.60 291.40,68.60 291.40,68.60
             291.40,68.60 291.40,68.70 291.40,68.70 Z
           M 293.40,39.90
           C 292.60,40.90 292.10,42.40 291.80,44.60
             291.50,46.80 291.40,50.10 291.40,54.60
             291.40,54.60 291.40,59.50 291.40,59.50
             291.40,59.50 302.60,59.50 302.60,59.50
             302.60,59.50 302.60,54.60 302.60,54.60
             302.60,50.20 302.50,46.90 302.20,44.60
             301.90,42.30 301.40,40.70 300.60,39.80
             299.80,38.90 298.60,38.40 297.00,38.40
             295.30,38.50 294.10,39.00 293.40,39.90 Z
           M 17.50,67.40
           C 17.50,67.40 0.00,4.20 0.00,4.20
             0.00,4.20 15.30,4.20 15.30,4.20
             15.30,4.20 21.40,32.80 21.40,32.80
             23.00,39.90 24.10,45.90 24.90,50.80
             24.90,50.80 25.30,50.80 25.30,50.80
             25.80,47.20 27.00,41.30 28.80,32.90
             28.80,32.90 35.10,4.20 35.10,4.20
             35.10,4.20 50.40,4.20 50.40,4.20
             50.40,4.20 32.70,67.30 32.70,67.30
             32.70,67.30 32.70,97.60 32.70,97.60
             32.70,97.60 17.60,97.60 17.60,97.60
             17.60,97.60 17.60,67.40 17.60,67.40
             17.60,67.40 17.50,67.40 17.50,67.40 Z
           M 138.50,29.40
           C 138.50,29.40 138.50,97.70 138.50,97.70
             138.50,97.70 126.50,97.70 126.50,97.70
             126.50,97.70 125.20,89.30 125.20,89.30
             125.20,89.30 124.90,89.30 124.90,89.30
             121.60,95.60 116.70,98.80 110.20,98.80
             105.70,98.80 102.30,97.30 100.20,94.30
             98.00,91.30 97.00,86.70 97.00,80.40
             97.00,80.40 97.00,29.40 97.00,29.40
             97.00,29.40 112.40,29.40 112.40,29.40
             112.40,29.40 112.40,79.50 112.40,79.50
             112.40,82.50 112.70,84.70 113.40,86.00
             114.10,87.30 115.20,87.90 116.70,87.90
             118.00,87.90 119.30,87.50 120.50,86.70
             121.70,85.90 122.60,84.80 123.20,83.60
             123.20,83.60 123.20,29.40 123.20,29.40
             123.20,29.40 138.50,29.40 138.50,29.40 Z
           M 217.40,29.40
           C 217.40,29.40 217.40,97.70 217.40,97.70
             217.40,97.70 205.40,97.70 205.40,97.70
             205.40,97.70 204.10,89.30 204.10,89.30
             204.10,89.30 203.80,89.30 203.80,89.30
             200.50,95.60 195.60,98.80 189.10,98.80
             184.60,98.80 181.20,97.30 179.10,94.30
             176.90,91.30 175.90,86.70 175.90,80.40
             175.90,80.40 175.90,29.40 175.90,29.40
             175.90,29.40 191.30,29.40 191.30,29.40
             191.30,29.40 191.30,79.50 191.30,79.50
             191.30,82.50 191.60,84.70 192.30,86.00
             193.00,87.30 194.10,87.90 195.60,87.90
             196.90,87.90 198.20,87.50 199.40,86.70
             200.60,85.90 201.50,84.80 202.10,83.60
             202.10,83.60 202.10,29.40 202.10,29.40
             202.10,29.40 217.40,29.40 217.40,29.40 Z
           M 180.30,16.60
           C 180.30,16.60 165.00,16.60 165.00,16.60
             165.00,16.60 165.00,97.70 165.00,97.70
             165.00,97.70 150.00,97.70 150.00,97.70
             150.00,97.70 150.00,16.60 150.00,16.60
             150.00,16.60 134.70,16.60 134.70,16.60
             134.70,16.60 134.70,4.20 134.70,4.20
             134.70,4.20 180.20,4.20 180.20,4.20
             180.20,4.20 180.20,16.60 180.20,16.60
             180.20,16.60 180.30,16.60 180.30,16.60 Z
           M 268.20,40.30
           C 267.30,36.00 265.80,32.90 263.70,30.90
             261.60,29.00 258.80,28.00 255.10,28.00
             252.30,28.00 249.60,28.80 247.20,30.40
             244.70,32.00 242.90,34.10 241.50,36.70
             241.50,36.70 241.40,36.70 241.40,36.70
             241.40,36.70 241.40,0.70 241.40,0.70
             241.40,0.70 226.60,0.70 226.60,0.70
             226.60,0.70 226.60,97.60 226.60,97.60
             226.60,97.60 239.30,97.60 239.30,97.60
             239.30,97.60 240.90,91.10 240.90,91.10
             240.90,91.10 241.20,91.10 241.20,91.10
             242.40,93.40 244.20,95.20 246.50,96.60
             248.90,97.90 251.50,98.60 254.40,98.60
             259.60,98.60 263.40,96.20 265.90,91.40
             268.30,86.60 269.60,79.10 269.60,69.00
             269.60,69.00 269.60,58.20 269.60,58.20
             269.60,50.60 269.10,44.60 268.20,40.30 Z
           M 254.10,68.20
           C 254.10,73.20 253.90,77.10 253.50,79.90
             253.10,82.70 252.40,84.70 251.40,85.90
             250.40,87.10 249.10,87.70 247.50,87.70
             246.20,87.70 245.10,87.40 244.00,86.80
             242.90,86.20 242.10,85.30 241.40,84.10
             241.40,84.10 241.40,45.30 241.40,45.30
             241.90,43.40 242.80,41.90 244.10,40.70
             245.40,39.50 246.70,38.90 248.20,38.90
             249.80,38.90 251.00,39.50 251.80,40.70
             252.70,41.90 253.20,44.00 253.60,46.90
             253.90,49.80 254.10,53.90 254.10,59.30
             254.10,59.30 254.10,68.20 254.10,68.20 Z" />
</svg>
